<svg xmlns="http://www.w3.org/2000/svg" xmlns:xlink="http://www.w3.org/1999/xlink" width="168.885" height="52.713" viewBox="0 0 168.885 52.713"><defs><path id="a" d="M96.486 25.407v-3.513h-2.598c-1.476 0-2.411-.651-2.411-2.783v-5.504l4.577.002v-3.586h-4.577V6.864l-4.54.007v3.152h-2.174v3.587l2.168-.003s.006 4.127.006 6.979c0 3.437 1.979 4.826 5.376 4.826 2.029 0 4.173-.005 4.173-.005z"/></defs><clipPath id="b"><use xlink:href="#a" overflow="visible"/></clipPath><path clip-path="url(#b)" fill="#FFF" d="M79.764 1.864h21.723v28.548H79.764z"/><defs><path id="c" d="M84.803 20.438c0-3.838-3.101-4.241-6.827-4.9-2.753-.487-3.822-.605-3.822-1.443 0-.718.881-1.268 2.6-1.268 2.66 0 2.694.77 2.694.77l4.685.012s.092-.986-.671-2.054c-.89-1.245-2.925-2.089-6.415-2.089-4.729 0-7.685 2.04-7.685 5.173 0 2.177.895 3.715 6.532 4.606 3.644.575 4.075.807 4.075 1.792 0 .595-.477 1.338-2.75 1.338-3.205 0-3.1-1.345-3.1-1.345h-4.786c.032 3.886 3.948 4.79 7.777 4.79 4.001-.001 7.693-1.215 7.693-5.382z"/></defs><clipPath id="d"><use xlink:href="#c" overflow="visible"/></clipPath><path clip-path="url(#d)" fill="#FFF" d="M64.333 4.465h25.47v26.354h-25.47z"/><defs><path id="e" d="M154.297 22.133c-2.766 0-4.386-1.52-4.386-4.408 0-2.956 1.568-4.734 4.419-4.734 2.341 0 4.141 1.371 4.141 3.885 0 .136.014.698.014.838-.001 2.691-1.505 4.419-4.188 4.419zm4.342-10.804s-1.414-1.89-5.545-1.89c-4.417 0-8.031 3.058-8.031 7.945 0 5.062 2.959 8.027 8.603 8.027 3.362 0 4.925-1.884 4.925-1.884v1.084c0 3.092-1.391 4.651-4.057 4.651-2.043 0-2.951-.583-3.381-1.394-.239-.45-.26-.805-.26-.805l-4.566-.006s-.043.556.1 1.159c.513 2.148 2.568 4.569 7.807 4.569 6.832 0 8.83-4.461 8.83-8.976V9.876h-4.422v1.453h-.003z"/></defs><clipPath id="f"><use xlink:href="#e" overflow="visible"/></clipPath><path clip-path="url(#f)" fill="#FFF" d="M140.062 4.439h28v33.349h-28z"/><defs><path id="g" d="M112.674 17.641c0-2.635 1.423-4.597 4.418-4.597 2.984 0 4.408 1.868 4.408 4.597 0 2.726-1.521 4.596-4.408 4.596-2.795-.001-4.418-1.725-4.418-4.596zm13.666 0c0-4.995-3.572-8.185-9.248-8.185-5.789 0-9.258 3.303-9.258 8.185 0 4.881 3.316 8.183 9.258 8.183 5.726-.001 9.248-3.19 9.248-8.183z"/></defs><clipPath id="h"><use xlink:href="#g" overflow="visible"/></clipPath><path clip-path="url(#h)" fill="#FFF" d="M102.834 4.456h28.506v26.367h-28.506z"/><defs><path id="i" d="M166.521 11.554h-.482v-.915h.738c.316 0 .645.049.645.451 0 .524-.535.464-.901.464zm1.243-.458c0-.427-.232-.683-.914-.683h-1.127v2.58h.316v-1.189h.579l.737 1.189h.377l-.779-1.189c.457-.013.811-.2.811-.708z"/></defs><clipPath id="j"><use xlink:href="#i" overflow="visible"/></clipPath><path clip-path="url(#j)" fill="#FFF" d="M160.723 5.413h12.041v12.58h-12.041z"/><defs><path id="k" d="M166.582 13.713c-1.127 0-1.951-.879-1.951-2.013 0-1.122.824-2.001 1.951-2.001 1.12 0 1.936.879 1.936 2.001 0 1.134-.816 2.013-1.936 2.013zm0-4.318a2.313 2.313 0 0 0-2.315 2.306 2.308 2.308 0 1 0 4.618 0 2.307 2.307 0 0 0-2.303-2.306z"/></defs><clipPath id="l"><use xlink:href="#k" overflow="visible"/></clipPath><path clip-path="url(#l)" fill="#FFF" d="M159.267 4.395h14.618v14.623h-14.618z"/><defs><path id="m" d="M137.734 9.44c-3.706 0-5.559 2.429-5.559 2.429V9.872h-4.389v15.55h4.646v-8.69c0-1.952 1-3.837 3.586-3.837 2.106 0 2.943 1.273 2.943 3.224v9.304h4.648V15.075c.002-3.372-1.584-5.635-5.875-5.635z"/></defs><clipPath id="n"><use xlink:href="#m" overflow="visible"/></clipPath><path clip-path="url(#n)" fill="#FFF" d="M122.787 4.44h25.824v25.981h-25.824z"/><defs><path id="o" d="M60.176 12.93c1.896 0 2.925.914 2.925 3.587v8.905h4.647V15.075c0-4.018-2.285-5.627-5.791-5.627-3.896 0-5.656 2.439-5.656 2.439s-1.13-2.434-4.909-2.434c-3.925 0-5.553 2.36-5.553 2.36V9.871h-4.282v15.551h4.647v-9.378c0-1.827 1.153-3.134 3.206-3.134 1.938 0 2.925.859 2.925 3.606v8.905h4.647v-9.475c.002-1.515.949-3.016 3.194-3.016z"/></defs><clipPath id="p"><use xlink:href="#o" overflow="visible"/></clipPath><path clip-path="url(#p)" fill="#FFF" d="M36.559 4.448h36.19v25.974h-36.19z"/><defs><path id="q" d="M107.674 13.62V9.889s-.371-.016-.943-.016c-2.992 0-4.414 2.645-4.414 2.645V9.871H97.87v15.551h4.647V18.08c0-1.092.278-2.301 1.028-3.172.83-.964 1.905-1.284 3.186-1.284.551 0 .943-.004.943-.004z"/></defs><clipPath id="r"><use xlink:href="#q" overflow="visible"/></clipPath><path clip-path="url(#r)" fill="#FFF" d="M92.869 4.871h19.805v25.551H92.869z"/><defs><path id="s" d="M20.11 5.398h-5.128L3.747 24.171a15.506 15.506 0 0 1-1.611-6.9c0-8.485 6.767-15.364 15.112-15.364 5.92 0 11.042 3.462 13.521 8.501l.012 13.329L20.11 5.398zM12.851 17.99l4.437-7.97 4.491 7.97h-8.928zm4.398 14.645c-5.403 0-10.142-2.886-12.814-7.223H8.72l2.188-3.931h12.838l2.215 3.941 4.095.002c-2.673 4.33-7.408 7.211-12.807 7.211zm18.203-7.208V18.28c0-3.021 1.187-4.677 4.006-4.664l.771.005V9.889s-.394-.087-1.212-.016c-2.577.225-3.765 2.756-3.765 2.756V9.861l-2.417.007C30.066 4.034 24.129 0 17.249 0 7.724 0 0 7.731 0 17.271c0 9.537 7.724 17.27 17.249 17.27 6.581 0 12.298-3.689 15.206-9.114h2.997z"/></defs><clipPath id="t"><use xlink:href="#s" overflow="visible"/></clipPath><path clip-path="url(#t)" fill="#FFF" d="M-5-5h50.229v44.54H-5z"/><defs><path id="u" d="M30.715 52.451h3.232v-5.01h5.994v-2.687h-5.994v-3.21h6.359v-2.662h-9.591z"/></defs><clipPath id="v"><use xlink:href="#u" overflow="visible"/></clipPath><path clip-path="url(#v)" fill="#FFF" d="M25.715 33.882h19.591v23.569H25.715z"/><defs><path id="w" d="M47.969 38.882h-3.231v13.569h9.199v-2.792h-5.968z"/></defs><clipPath id="x"><use xlink:href="#w" overflow="visible"/></clipPath><path clip-path="url(#x)" fill="#FFF" d="M39.738 33.882h19.199v23.569H39.738z"/><defs><path id="y" d="M65.791 48.041c0 1.201-.678 1.879-2.58 1.879-1.903 0-2.58-.678-2.58-1.879v-4.748c0-1.201.677-1.879 2.58-1.879 1.902 0 2.58.678 2.58 1.879v4.748zm-2.581-9.419c-4.222 0-5.812 1.982-5.812 4.305v5.48c0 2.322 1.59 4.306 5.812 4.306s5.812-1.983 5.812-4.306v-5.48c-.001-2.323-1.59-4.305-5.812-4.305z"/></defs><clipPath id="z"><use xlink:href="#y" overflow="visible"/></clipPath><path clip-path="url(#z)" fill="#FFF" d="M52.398 33.622h21.624v24.091H52.398z"/><defs><path id="A" d="M81.975 48.041c0 1.201-.677 1.879-2.58 1.879s-2.58-.678-2.58-1.879v-4.748c0-1.201.677-1.879 2.58-1.879s2.58.678 2.58 1.879v4.748zm-2.58-9.419c-4.222 0-5.812 1.982-5.812 4.305v5.48c0 2.322 1.59 4.306 5.812 4.306s5.812-1.983 5.812-4.306v-5.48c0-2.323-1.589-4.305-5.812-4.305z"/></defs><clipPath id="B"><use xlink:href="#A" overflow="visible"/></clipPath><path clip-path="url(#B)" fill="#FFF" d="M68.583 33.622h21.624v24.091H68.583z"/><defs><path id="C" d="M98.108 44.467c0 .966-.442 1.436-1.668 1.436h-3.049v-4.384h3.153c1.121 0 1.563.364 1.563 1.33v1.618zm3.154.182v-1.957c0-2.4-1.172-3.81-4.742-3.81h-6.36V52.45h3.23v-3.966h2.867l2.658 3.966h3.674l-3.127-4.618c1.383-.756 1.8-1.644 1.8-3.183z"/></defs><clipPath id="D"><use xlink:href="#C" overflow="visible"/></clipPath><path clip-path="url(#D)" fill="#FFF" d="M85.16 33.883h22.43v23.568H85.16z"/><defs><path id="E" d="M106.644 38.882h3.231v13.569h-3.231z"/></defs><clipPath id="F"><use xlink:href="#E" overflow="visible"/></clipPath><path clip-path="url(#F)" fill="#FFF" d="M101.644 33.882h13.231v23.569h-13.231z"/><defs><path id="G" d="M124.745 48.434l-5.343-9.552h-3.935v13.569h3.076v-9.524l5.342 9.524h3.935V38.882h-3.075z"/></defs><clipPath id="H"><use xlink:href="#G" overflow="visible"/></clipPath><path clip-path="url(#H)" fill="#FFF" d="M110.467 33.882h22.354v23.569h-22.354z"/><defs><path id="I" d="M140.513 49.738c-.651.13-1.381.209-2.163.209-2.033 0-2.346-.627-2.346-1.879v-4.906c0-1.33.626-1.748 2.294-1.748 1.589 0 3.023.13 4.562.391l.287-2.714a23.88 23.88 0 0 0-4.718-.469c-4.144 0-5.655 1.356-5.655 4.201v5.688c0 2.714 1.381 4.201 5.473 4.201 1.746 0 3.675-.234 5.291-.704v-6.186h-3.023l-.002 3.916z"/></defs><clipPath id="J"><use xlink:href="#I" overflow="visible"/></clipPath><path clip-path="url(#J)" fill="#FFF" d="M127.773 33.622h20.763v24.091h-20.763z"/></svg>