<?xml version="1.0" encoding="utf-8"?>
<!-- Generator: Adobe Illustrator 16.0.4, SVG Export Plug-In . SVG Version: 6.00 Build 0)  -->
<!DOCTYPE svg PUBLIC "-//W3C//DTD SVG 1.1//EN" "http://www.w3.org/Graphics/SVG/1.1/DTD/svg11.dtd">
<svg version="1.1" id="Layer_1" xmlns="http://www.w3.org/2000/svg" xmlns:xlink="http://www.w3.org/1999/xlink" x="0px" y="0px"
	 width="168.885px" height="52.713px" viewBox="0 0 168.885 52.713" enable-background="new 0 0 168.885 52.713"
	 xml:space="preserve">
<g>
	<defs>
		<path id="SVGID_1_" d="M96.486,25.407v-3.513h-2.598c-1.476,0-2.411-0.651-2.411-2.783v-5.504l4.577,0.002v-3.586h-4.577V6.864
			l-4.54,0.007v3.152h-2.174v3.587l2.168-0.003c0,0,0.006,4.127,0.006,6.979c0,3.437,1.979,4.826,5.376,4.826
			C94.342,25.412,96.486,25.407,96.486,25.407z"/>
	</defs>
	<clipPath id="SVGID_2_">
		<use xlink:href="#SVGID_1_"  overflow="visible"/>
	</clipPath>
	<rect x="79.764" y="1.864" clip-path="url(#SVGID_2_)" fill="#FFFFFF" width="21.723" height="28.548"/>
</g>
<g>
	<defs>
		<path id="SVGID_3_" d="M84.803,20.438c0-3.838-3.101-4.241-6.827-4.9c-2.753-0.487-3.822-0.605-3.822-1.443
			c0-0.718,0.881-1.268,2.6-1.268c2.66,0,2.694,0.77,2.694,0.77l4.685,0.012c0,0,0.092-0.986-0.671-2.054
			c-0.89-1.245-2.925-2.089-6.415-2.089c-4.729,0-7.685,2.04-7.685,5.173c0,2.177,0.895,3.715,6.532,4.606
			c3.644,0.575,4.075,0.807,4.075,1.792c0,0.595-0.477,1.338-2.75,1.338c-3.205,0-3.1-1.345-3.1-1.345h-4.786
			c0.032,3.886,3.948,4.79,7.777,4.79C81.111,25.819,84.803,24.605,84.803,20.438z"/>
	</defs>
	<clipPath id="SVGID_4_">
		<use xlink:href="#SVGID_3_"  overflow="visible"/>
	</clipPath>
	<rect x="64.333" y="4.465" clip-path="url(#SVGID_4_)" fill="#FFFFFF" width="25.47" height="26.354"/>
</g>
<g>
	<defs>
		<path id="SVGID_5_" d="M154.297,22.133c-2.766,0-4.386-1.52-4.386-4.408c0-2.956,1.568-4.734,4.419-4.734
			c2.341,0,4.141,1.371,4.141,3.885c0,0.136,0.014,0.698,0.014,0.838C158.484,20.405,156.98,22.133,154.297,22.133z M158.639,11.329
			c0,0-1.414-1.89-5.545-1.89c-4.417,0-8.031,3.058-8.031,7.945c0,5.062,2.959,8.027,8.603,8.027c3.362,0,4.925-1.884,4.925-1.884
			v1.084c0,3.092-1.391,4.651-4.057,4.651c-2.043,0-2.951-0.583-3.381-1.394c-0.239-0.45-0.26-0.805-0.26-0.805l-4.566-0.006
			c0,0-0.043,0.556,0.1,1.159c0.513,2.148,2.568,4.569,7.807,4.569c6.832,0,8.83-4.461,8.83-8.976V9.876h-4.422v1.453H158.639z"/>
	</defs>
	<clipPath id="SVGID_6_">
		<use xlink:href="#SVGID_5_"  overflow="visible"/>
	</clipPath>
	<rect x="140.062" y="4.439" clip-path="url(#SVGID_6_)" fill="#FFFFFF" width="28" height="33.349"/>
</g>
<g>
	<defs>
		<path id="SVGID_7_" d="M112.674,17.641c0-2.635,1.423-4.597,4.418-4.597c2.984,0,4.408,1.868,4.408,4.597
			c0,2.726-1.521,4.596-4.408,4.596C114.297,22.236,112.674,20.512,112.674,17.641z M126.34,17.641c0-4.995-3.572-8.185-9.248-8.185
			c-5.789,0-9.258,3.303-9.258,8.185c0,4.881,3.316,8.183,9.258,8.183C122.818,25.823,126.34,22.634,126.34,17.641z"/>
	</defs>
	<clipPath id="SVGID_8_">
		<use xlink:href="#SVGID_7_"  overflow="visible"/>
	</clipPath>
	<rect x="102.834" y="4.456" clip-path="url(#SVGID_8_)" fill="#FFFFFF" width="28.506" height="26.367"/>
</g>
<g>
	<defs>
		<path id="SVGID_9_" d="M166.521,11.554h-0.482v-0.915h0.738c0.316,0,0.645,0.049,0.645,0.451
			C167.422,11.614,166.887,11.554,166.521,11.554z M167.764,11.096c0-0.427-0.232-0.683-0.914-0.683h-1.127v2.58h0.316v-1.189h0.579
			l0.737,1.189h0.377l-0.779-1.189C167.41,11.791,167.764,11.604,167.764,11.096z"/>
	</defs>
	<clipPath id="SVGID_10_">
		<use xlink:href="#SVGID_9_"  overflow="visible"/>
	</clipPath>
	<rect x="160.723" y="5.413" clip-path="url(#SVGID_10_)" fill="#FFFFFF" width="12.041" height="12.58"/>
</g>
<g>
	<defs>
		<path id="SVGID_11_" d="M166.582,13.713c-1.127,0-1.951-0.879-1.951-2.013c0-1.122,0.824-2.001,1.951-2.001
			c1.12,0,1.936,0.879,1.936,2.001C168.518,12.834,167.702,13.713,166.582,13.713z M166.582,9.395c-1.279,0-2.315,1.037-2.315,2.306
			c0,1.281,1.036,2.317,2.315,2.317c1.273,0,2.303-1.036,2.303-2.317C168.885,10.432,167.855,9.395,166.582,9.395z"/>
	</defs>
	<clipPath id="SVGID_12_">
		<use xlink:href="#SVGID_11_"  overflow="visible"/>
	</clipPath>
	<rect x="159.267" y="4.395" clip-path="url(#SVGID_12_)" fill="#FFFFFF" width="14.618" height="14.623"/>
</g>
<g>
	<defs>
		<path id="SVGID_13_" d="M137.734,9.44c-3.706,0-5.559,2.429-5.559,2.429V9.872h-4.389v15.55h4.646v-8.69
			c0-1.952,1-3.837,3.586-3.837c2.106,0,2.943,1.273,2.943,3.224v9.304h4.648V15.075C143.611,11.703,142.025,9.44,137.734,9.44z"/>
	</defs>
	<clipPath id="SVGID_14_">
		<use xlink:href="#SVGID_13_"  overflow="visible"/>
	</clipPath>
	<rect x="122.787" y="4.44" clip-path="url(#SVGID_14_)" fill="#FFFFFF" width="25.824" height="25.981"/>
</g>
<g>
	<defs>
		<path id="SVGID_15_" d="M60.176,12.93c1.896,0,2.925,0.914,2.925,3.587v8.905h4.647V15.075c0-4.018-2.285-5.627-5.791-5.627
			c-3.896,0-5.656,2.439-5.656,2.439s-1.13-2.434-4.909-2.434c-3.925,0-5.553,2.36-5.553,2.36V9.871h-4.282v15.551h4.647v-9.378
			c0-1.827,1.153-3.134,3.206-3.134c1.938,0,2.925,0.859,2.925,3.606v8.905h4.647v-9.475C56.984,14.431,57.931,12.93,60.176,12.93z"
			/>
	</defs>
	<clipPath id="SVGID_16_">
		<use xlink:href="#SVGID_15_"  overflow="visible"/>
	</clipPath>
	<rect x="36.559" y="4.448" clip-path="url(#SVGID_16_)" fill="#FFFFFF" width="36.19" height="25.974"/>
</g>
<g>
	<defs>
		<path id="SVGID_17_" d="M107.674,13.62V9.889c0,0-0.371-0.016-0.943-0.016c-2.992,0-4.414,2.645-4.414,2.645V9.871h-4.447v15.551
			h4.647V18.08c0-1.092,0.278-2.301,1.028-3.172c0.83-0.964,1.905-1.284,3.186-1.284C107.282,13.624,107.674,13.62,107.674,13.62z"
			/>
	</defs>
	<clipPath id="SVGID_18_">
		<use xlink:href="#SVGID_17_"  overflow="visible"/>
	</clipPath>
	<rect x="92.869" y="4.871" clip-path="url(#SVGID_18_)" fill="#FFFFFF" width="19.805" height="25.551"/>
</g>
<g>
	<defs>
		<path id="SVGID_19_" d="M20.11,5.398h-5.128L3.747,24.171c-1.028-2.076-1.611-4.418-1.611-6.9c0-8.485,6.767-15.364,15.112-15.364
			c5.92,0,11.042,3.462,13.521,8.501l0.012,13.329L20.11,5.398z M12.851,17.99l4.437-7.97l4.491,7.97H12.851z M17.249,32.635
			c-5.403,0-10.142-2.886-12.814-7.223H8.72l2.188-3.931h12.838l2.215,3.941l4.095,0.002C27.383,29.754,22.648,32.635,17.249,32.635
			z M35.452,25.427v-7.147c0-3.021,1.187-4.677,4.006-4.664c0.551,0.003,0.771,0.005,0.771,0.005V9.889c0,0-0.394-0.087-1.212-0.016
			c-2.577,0.225-3.765,2.756-3.765,2.756V9.861l-2.417,0.007C30.066,4.034,24.129,0,17.249,0C7.724,0,0,7.731,0,17.271
			c0,9.537,7.724,17.27,17.249,17.27c6.581,0,12.298-3.689,15.206-9.114L35.452,25.427z"/>
	</defs>
	<clipPath id="SVGID_20_">
		<use xlink:href="#SVGID_19_"  overflow="visible"/>
	</clipPath>
	<rect x="-5" y="-5" clip-path="url(#SVGID_20_)" fill="#FFFFFF" width="50.229" height="44.54"/>
</g>
<g>
	<defs>
		<polygon id="SVGID_21_" points="30.715,52.451 33.947,52.451 33.947,47.441 39.941,47.441 39.941,44.754 33.947,44.754 
			33.947,41.544 40.306,41.544 40.306,38.882 30.715,38.882 		"/>
	</defs>
	<clipPath id="SVGID_22_">
		<use xlink:href="#SVGID_21_"  overflow="visible"/>
	</clipPath>
	<rect x="25.715" y="33.882" clip-path="url(#SVGID_22_)" fill="#FFFFFF" width="19.591" height="23.569"/>
</g>
<g>
	<defs>
		<polygon id="SVGID_23_" points="47.969,38.882 44.738,38.882 44.738,52.451 53.937,52.451 53.937,49.659 47.969,49.659 		"/>
	</defs>
	<clipPath id="SVGID_24_">
		<use xlink:href="#SVGID_23_"  overflow="visible"/>
	</clipPath>
	<rect x="39.738" y="33.882" clip-path="url(#SVGID_24_)" fill="#FFFFFF" width="19.199" height="23.569"/>
</g>
<g>
	<defs>
		<path id="SVGID_25_" d="M65.791,48.041c0,1.201-0.678,1.879-2.58,1.879c-1.903,0-2.58-0.678-2.58-1.879v-4.748
			c0-1.201,0.677-1.879,2.58-1.879c1.902,0,2.58,0.678,2.58,1.879V48.041z M63.21,38.622c-4.222,0-5.812,1.982-5.812,4.305v5.48
			c0,2.322,1.59,4.306,5.812,4.306c4.222,0,5.812-1.983,5.812-4.306v-5.48C69.021,40.604,67.432,38.622,63.21,38.622z"/>
	</defs>
	<clipPath id="SVGID_26_">
		<use xlink:href="#SVGID_25_"  overflow="visible"/>
	</clipPath>
	<rect x="52.398" y="33.622" clip-path="url(#SVGID_26_)" fill="#FFFFFF" width="21.624" height="24.091"/>
</g>
<g>
	<defs>
		<path id="SVGID_27_" d="M81.975,48.041c0,1.201-0.677,1.879-2.58,1.879s-2.58-0.678-2.58-1.879v-4.748
			c0-1.201,0.677-1.879,2.58-1.879s2.58,0.678,2.58,1.879V48.041z M79.395,38.622c-4.222,0-5.812,1.982-5.812,4.305v5.48
			c0,2.322,1.59,4.306,5.812,4.306c4.222,0,5.812-1.983,5.812-4.306v-5.48C85.207,40.604,83.618,38.622,79.395,38.622z"/>
	</defs>
	<clipPath id="SVGID_28_">
		<use xlink:href="#SVGID_27_"  overflow="visible"/>
	</clipPath>
	<rect x="68.583" y="33.622" clip-path="url(#SVGID_28_)" fill="#FFFFFF" width="21.624" height="24.091"/>
</g>
<g>
	<defs>
		<path id="SVGID_29_" d="M98.108,44.467c0,0.966-0.442,1.436-1.668,1.436h-3.049v-4.384h3.153c1.121,0,1.563,0.364,1.563,1.33
			V44.467z M101.262,44.649v-1.957c0-2.4-1.172-3.81-4.742-3.81H90.16v13.568h3.23v-3.966h2.867l2.658,3.966h3.674l-3.127-4.618
			C100.845,47.076,101.262,46.188,101.262,44.649z"/>
	</defs>
	<clipPath id="SVGID_30_">
		<use xlink:href="#SVGID_29_"  overflow="visible"/>
	</clipPath>
	<rect x="85.16" y="33.883" clip-path="url(#SVGID_30_)" fill="#FFFFFF" width="22.43" height="23.568"/>
</g>
<g>
	<defs>
		<rect id="SVGID_31_" x="106.644" y="38.882" width="3.231" height="13.569"/>
	</defs>
	<clipPath id="SVGID_32_">
		<use xlink:href="#SVGID_31_"  overflow="visible"/>
	</clipPath>
	<rect x="101.644" y="33.882" clip-path="url(#SVGID_32_)" fill="#FFFFFF" width="13.231" height="23.569"/>
</g>
<g>
	<defs>
		<polygon id="SVGID_33_" points="124.745,48.434 119.402,38.882 115.467,38.882 115.467,52.451 118.543,52.451 118.543,42.927 
			123.885,52.451 127.82,52.451 127.82,38.882 124.745,38.882 		"/>
	</defs>
	<clipPath id="SVGID_34_">
		<use xlink:href="#SVGID_33_"  overflow="visible"/>
	</clipPath>
	<rect x="110.467" y="33.882" clip-path="url(#SVGID_34_)" fill="#FFFFFF" width="22.354" height="23.569"/>
</g>
<g>
	<defs>
		<path id="SVGID_35_" d="M140.513,49.738c-0.651,0.13-1.381,0.209-2.163,0.209c-2.033,0-2.346-0.627-2.346-1.879v-4.906
			c0-1.33,0.626-1.748,2.294-1.748c1.589,0,3.023,0.13,4.562,0.391l0.287-2.714c-1.695-0.339-3.259-0.469-4.718-0.469
			c-4.144,0-5.655,1.356-5.655,4.201v5.688c0,2.714,1.381,4.201,5.473,4.201c1.746,0,3.675-0.234,5.291-0.704v-6.186h-3.023
			L140.513,49.738L140.513,49.738z"/>
	</defs>
	<clipPath id="SVGID_36_">
		<use xlink:href="#SVGID_35_"  overflow="visible"/>
	</clipPath>
	<rect x="127.773" y="33.622" clip-path="url(#SVGID_36_)" fill="#FFFFFF" width="20.763" height="24.091"/>
</g>
</svg>
